<?xml version="1.0" encoding="UTF-8"?>
<svg version="1.1" xmlns="http://www.w3.org/2000/svg" width="200" height="200">
<path d="M0 0 C66 0 132 0 200 0 C200 66 200 132 200 200 C134 200 68 200 0 200 C0 134 0 68 0 0 Z " fill="#FDFDFD" transform="translate(0,0)"/>
<path d="M0 0 C4.08375 -0.0825 8.1675 -0.165 12.375 -0.25 C14.27451416 -0.30462402 14.27451416 -0.30462402 16.21240234 -0.36035156 C23.50798818 -0.4310607 29.58910122 0.32589896 36 4 C40.11477213 8.21513243 41.21432039 10.97287639 41.171875 16.8515625 C41 19 41 19 39.9375 22.5625 C37.77425957 30.49438157 41.17842002 36.24065505 44 44 C44.33 29.48 44.66 14.96 45 0 C56.22 0 67.44 0 79 0 C79 4.62 79 9.24 79 14 C73.39 14 67.78 14 62 14 C62 16.64 62 19.28 62 22 C67.28 22 72.56 22 78 22 C78 25.3 78 28.6 78 32 C72.72 32 67.44 32 62 32 C62 33.65 62 35.3 62 37 C67.28 37.33 72.56 37.66 78 38 C78 42.29 78 46.58 78 51 C60.84 51 43.68 51 26 51 C18 31 18 31 21 22 C21.03954234 19.66700175 21.04401732 17.33291811 21 15 C20.01 14.67 19.02 14.34 18 14 C18 26.21 18 38.42 18 51 C12.06 51 6.12 51 0 51 C0 34.17 0 17.34 0 0 Z " fill="#0B0B0B" transform="translate(14,66)"/>
<path d="M0 0 C2.42599708 0.30324963 4.66722746 0.65722384 7 1.375 C7 1.045 7 0.715 7 0.375 C10.20708688 0.14110306 13.41197595 0.00012472 16.625 -0.125 C17.98044922 -0.22554687 17.98044922 -0.22554687 19.36328125 -0.328125 C26.01813726 -0.52242737 26.01813726 -0.52242737 28.98730469 2.19140625 C30.48886797 4.19349063 31.79972065 6.18098087 33 8.375 C34.32 8.045 35.64 7.715 37 7.375 C35.23104283 12.36024294 32.6020365 16.7871988 30 21.375 C25.05 21.045 20.1 20.715 15 20.375 C15.33 19.715 15.66 19.055 16 18.375 C16.66 18.375 17.32 18.375 18 18.375 C16.35 15.405 14.7 12.435 13 9.375 C12.34 9.375 11.68 9.375 11 9.375 C9.38647219 11.26469145 9.38647219 11.26469145 7.875 13.75 C7.33617187 14.56210937 6.79734375 15.37421875 6.2421875 16.2109375 C2.5974463 25.49471226 5.81386982 37.45883507 7 47.125 C7.28788466 49.49232 7.57399088 51.85981172 7.85595703 54.22784424 C8.03038394 55.69080638 8.20823349 57.15336611 8.39013672 58.61541748 C8.86897497 62.6095499 9 66.31953464 9 70.375 C2.73 70.375 -3.54 70.375 -10 70.375 C-10.66 64.435 -11.32 58.495 -12 52.375 C-12.66 56.335 -13.32 60.295 -14 64.375 C-17.96 64.375 -21.92 64.375 -26 64.375 C-26.99 60.415 -27.98 56.455 -29 52.375 C-29.33 58.315 -29.66 64.255 -30 70.375 C-35.94 70.375 -41.88 70.375 -48 70.375 C-47.50194056 60.61303497 -46.47886097 51.07397588 -45.09106445 41.39916992 C-44.20033024 35.11127875 -43.55561182 28.88661747 -43.2109375 22.54296875 C-43 20.375 -43 20.375 -42 19.375 C-40.58429877 19.28848389 -39.164405 19.26795096 -37.74609375 19.27734375 C-36.46508789 19.28217773 -36.46508789 19.28217773 -35.15820312 19.28710938 C-34.26037109 19.29548828 -33.36253906 19.30386719 -32.4375 19.3125 C-31.53580078 19.31701172 -30.63410156 19.32152344 -29.70507812 19.32617188 C-27.46998686 19.33799775 -25.23502563 19.3544778 -23 19.375 C-22.79503906 20.51839844 -22.59007813 21.66179687 -22.37890625 22.83984375 C-22.1069769 24.33076676 -21.83483026 25.82165016 -21.5625 27.3125 C-21.42779297 28.06724609 -21.29308594 28.82199219 -21.15429688 29.59960938 C-20.75727966 33.29453174 -20.75727966 33.29453174 -19 36.375 C-18.8040625 35.22644531 -18.608125 34.07789063 -18.40625 32.89453125 C-16.4064995 22.17711844 -13.57173015 14.24426862 -7 5.375 C-6.319375 4.44042969 -5.63875 3.50585938 -4.9375 2.54296875 C-3 0.375 -3 0.375 0 0 Z " fill="#191919" transform="translate(142,46.625)"/>
<path d="M0 0 C2.55751599 0.15345096 4.69146404 0.4387197 7.125 1.1875 C7.125 0.8575 7.125 0.5275 7.125 0.1875 C10.33208688 -0.04639694 13.53697595 -0.18737528 16.75 -0.3125 C17.65363281 -0.37953125 18.55726563 -0.4465625 19.48828125 -0.515625 C26.14313726 -0.70992737 26.14313726 -0.70992737 29.11230469 2.00390625 C30.61386797 4.00599063 31.92472065 5.99348087 33.125 8.1875 C34.445 7.8575 35.765 7.5275 37.125 7.1875 C35.35604283 12.17274294 32.7270365 16.5996988 30.125 21.1875 C25.175 20.8575 20.225 20.5275 15.125 20.1875 C15.455 19.5275 15.785 18.8675 16.125 18.1875 C16.785 18.1875 17.445 18.1875 18.125 18.1875 C16.475 15.2175 14.825 12.2475 13.125 9.1875 C12.465 9.1875 11.805 9.1875 11.125 9.1875 C6.05560336 15.50743746 4.3533034 21.19688091 4.125 29.1875 C-2.475 29.1875 -9.075 29.1875 -15.875 29.1875 C-15.875 20.43324043 -13.34851014 15.65805179 -8.8125 8.375 C-7.77416016 6.69470703 -7.77416016 6.69470703 -6.71484375 4.98046875 C-3.58815564 0.23401015 -3.58815564 0.23401015 0 0 Z " fill="#050505" transform="translate(141.875,46.8125)"/>
<path d="M0 0 C4.42679007 1.47559669 4.91432696 3.90057368 7 8 C7 8.66 7 9.32 7 10 C6.01 10.495 6.01 10.495 5 11 C9.62 11.66 14.24 12.32 19 13 C19.66 14.65 20.32 16.3 21 18 C19.02 18.99 17.04 19.98 15 21 C16.60630825 25.24292532 18.5768162 29.27025107 20.625 33.3125 C20.94984375 33.95767578 21.2746875 34.60285156 21.609375 35.26757812 C22.40441956 36.84597541 23.20195634 38.42311694 24 40 C20.04 40 16.08 40 12 40 C11.67 39.01 11.34 38.02 11 37 C10.45730469 37.85464844 9.91460937 38.70929688 9.35546875 39.58984375 C8.64003906 40.69457031 7.92460937 41.79929688 7.1875 42.9375 C6.12595703 44.59072266 6.12595703 44.59072266 5.04296875 46.27734375 C3 49 3 49 0 50 C0 49.01 0 48.02 0 47 C-1.32 47 -2.64 47 -4 47 C-4.50972081 42.87614173 -5.00597627 38.75076577 -5.5 34.625 C-5.64308594 33.46871094 -5.78617188 32.31242187 -5.93359375 31.12109375 C-8.26079545 11.50610795 -8.26079545 11.50610795 -3.5 4.875 C-2.8503125 3.94429687 -2.200625 3.01359375 -1.53125 2.0546875 C-0.77328125 1.03761719 -0.77328125 1.03761719 0 0 Z " fill="#F8F8F8" transform="translate(153,55)"/>
<path d="M0 0 C5.94 0 11.88 0 18 0 C16.02 2.97 16.02 2.97 14 6 C14.639375 5.835 15.27875 5.67 15.9375 5.5 C26.19322459 3.82559598 26.19322459 3.82559598 30.5 6.625 C32.3865445 9.61202879 32.93045351 11.45312926 33 15 C31.74073438 19.29631801 30.58189933 21.49568725 27.1875 24.4375 C23.69354692 26.1502221 21.82997759 26.58282268 18 26 C15.625 24.625 15.625 24.625 14 23 C14 22.34 14 21.68 14 21 C12.17638602 20.22940917 12.17638602 20.22940917 10 20 C8.24118622 21.19720464 8.24118622 21.19720464 6.6875 22.9375 C3.96058076 25.44205244 3.12909964 25.97593057 -0.6875 26.6875 C-4 26 -4 26 -6.4375 24.0625 C-8.55329858 19.91553478 -8.80286301 16.56829052 -8 12 C-5.24137931 6.48275862 -5.24137931 6.48275862 -1.75 5.125 C-1.1725 5.08375 -0.595 5.0425 0 5 C0 3.35 0 1.7 0 0 Z " fill="#E9E9E9" transform="translate(133,117)"/>
<path d="M0 0 C1.82421875 2.51171875 1.82421875 2.51171875 3.6875 5.6875 C4.31011719 6.72261719 4.93273437 7.75773437 5.57421875 8.82421875 C7.11049125 12.2461079 7.47837292 14.29780957 7 18 C4.5625 20.8125 4.5625 20.8125 2 23 C1.67 23.33 1.34 23.66 1 24 C1.66 24 2.32 24 3 24 C1.58220053 27.87249706 -0.22984788 31.20748064 -2.4375 34.6875 C-3.03433594 35.64011719 -3.63117188 36.59273437 -4.24609375 37.57421875 C-6 40 -6 40 -9 42 C-11.26171875 42.1953125 -11.26171875 42.1953125 -13.6875 42.125 C-14.49574219 42.10695312 -15.30398437 42.08890625 -16.13671875 42.0703125 C-16.75160156 42.04710937 -17.36648437 42.02390625 -18 42 C-18 43.65 -18 45.3 -18 47 C-20.56837049 44.6256152 -22.43556748 42.07254558 -24.3125 39.125 C-25.14201172 37.86042969 -25.14201172 37.86042969 -25.98828125 36.5703125 C-27 34 -27 34 -26.36328125 31.44921875 C-25.01476824 29.02653206 -23.57915022 26.87325789 -21.875 24.6875 C-21.33617187 23.99011719 -20.79734375 23.29273437 -20.2421875 22.57421875 C-19.62730469 21.79498047 -19.62730469 21.79498047 -19 21 C-18.67 22.32 -18.34 23.64 -18 25 C-14.37 24.67 -10.74 24.34 -7 24 C-7.5775 22.96359375 -8.155 21.9271875 -8.75 20.859375 C-9.50043901 19.4898238 -10.25041488 18.12001875 -11 16.75 C-11.3815625 16.06808594 -11.763125 15.38617188 -12.15625 14.68359375 C-12.5171875 14.01972656 -12.878125 13.35585937 -13.25 12.671875 C-13.58515625 12.0644043 -13.9203125 11.45693359 -14.265625 10.83105469 C-15 9 -15 9 -15 5 C-13.06891037 3.96709159 -11.129882 2.94901328 -9.1875 1.9375 C-8.10855469 1.36902344 -7.02960938 0.80054687 -5.91796875 0.21484375 C-3 -1 -3 -1 0 0 Z " fill="#080808" transform="translate(183,70)"/>
<path d="M0 0 C10.56 0 21.12 0 32 0 C32 4.29 32 8.58 32 13 C26.72 13 21.44 13 16 13 C16 15.64 16 18.28 16 21 C21.28 21 26.56 21 32 21 C32 24.3 32 27.6 32 31 C26.39 31 20.78 31 15 31 C15 32.32 15 33.64 15 35 C13 34 13 34 12.03515625 31.375 C11.71417969 30.26125 11.39320312 29.1475 11.0625 28 C9.66944679 23.2469233 8.19662377 18.5608563 6.515625 13.90234375 C6 12 6 12 6 8 C4.02 8.33 2.04 8.66 0 9 C0 6.03 0 3.06 0 0 Z " fill="#020202" transform="translate(60,67)"/>
<path d="M0 0 C2.97 0.33 5.94 0.66 9 1 C9 8.92 9 16.84 9 25 C10.32 25 11.64 25 13 25 C13 27.97 13 30.94 13 34 C7.06 34 1.12 34 -5 34 C-4.54162109 26.05476551 -3.99320033 18.15457812 -3.0625 10.25 C-2.98789551 9.57130859 -2.91329102 8.89261719 -2.83642578 8.19335938 C-2.41037238 4.75356626 -1.96353822 2.94530733 0 0 Z " fill="#070707" transform="translate(99,83)"/>
<path d="M0 0 C0.66 0 1.32 0 2 0 C3.28671562 7.62447448 4.30454717 15.25040796 5.125 22.9375 C5.21249512 23.7416333 5.29999023 24.5457666 5.39013672 25.37426758 C5.47021973 26.14665771 5.55030273 26.91904785 5.6328125 27.71484375 C5.73940186 28.73759399 5.73940186 28.73759399 5.84814453 29.78100586 C6.0352262 32.51474422 6 35.25986771 6 38 C-0.27 38 -6.54 38 -13 38 C-13 30 -13 30 -12 29 C-9.81360547 28.92741054 -7.62499611 28.91626217 -5.4375 28.9375 C-3.64119141 28.95103516 -3.64119141 28.95103516 -1.80859375 28.96484375 C-0.88175781 28.97644531 0.04507813 28.98804687 1 29 C0.67 27.02 0.34 25.04 0 23 C-3.96 23 -7.92 23 -12 23 C-11.125 16.125 -11.125 16.125 -10 15 C-8.48071962 14.92820036 -6.95832518 14.91607993 -5.4375 14.9375 C-4.61121094 14.94652344 -3.78492188 14.95554687 -2.93359375 14.96484375 C-2.29550781 14.97644531 -1.65742188 14.98804687 -1 15 C-1 13.02 -1 11.04 -1 9 C-4.63 9 -8.26 9 -12 9 C-12 7.02 -12 5.04 -12 3 C-10.37509046 2.97301811 -8.75005367 2.95361243 -7.125 2.9375 C-6.22007812 2.92589844 -5.31515625 2.91429688 -4.3828125 2.90234375 C-2 3 -2 3 0 4 C0 2.68 0 1.36 0 0 Z " fill="#090909" transform="translate(145,79)"/>
<path d="M0 0 C11.22 0 22.44 0 34 0 C34 4.62 34 9.24 34 14 C33.67 14 33.34 14 33 14 C33 9.71 33 5.42 33 1 C22.44 1 11.88 1 1 1 C1 3.97 1 6.94 1 10 C2.98 9.67 4.96 9.34 7 9 C7.25394531 9.83402344 7.50789063 10.66804688 7.76953125 11.52734375 C11.4772473 23.90548439 11.4772473 23.90548439 16 36 C16.33 34.68 16.66 33.36 17 32 C17 33.65 17 35.3 17 37 C16.34 37 15.68 37 15 37 C15 38.65 15 40.3 15 42 C12.69 42 10.38 42 8 42 C7.505 40.515 7.505 40.515 7 39 C3.99152582 37.77479736 3.99152582 37.77479736 1 37 C1 40.96 1 44.92 1 49 C-1 47 -1 47 -1.20254517 44.97518921 C-1.18033905 44.14468048 -1.15813293 43.31417175 -1.13525391 42.45849609 C-1.11508209 41.51767181 -1.09491028 40.57684753 -1.0741272 39.60751343 C-1.04193085 38.58976837 -1.0097345 37.57202332 -0.9765625 36.5234375 C-0.95153656 35.48305328 -0.92651062 34.44266907 -0.90072632 33.37075806 C-0.81836806 30.03851498 -0.7218394 26.70685068 -0.625 23.375 C-0.56677665 21.11981553 -0.50947304 18.86460711 -0.453125 16.609375 C-0.31449824 11.07245901 -0.15673483 5.53655186 0 0 Z " fill="#303030" transform="translate(59,66)"/>
<path d="M0 0 C2.97 0.495 2.97 0.495 6 1 C6.33 2.32 6.66 3.64 7 5 C9.31 5 11.62 5 14 5 C14 3.35 14 1.7 14 0 C20.1105424 -0.11269443 25.95170514 0.10395632 32 1 C32 5.29 32 9.58 32 14 C21.44 14 10.88 14 0 14 C0 9.38 0 4.76 0 0 Z " fill="#020202" transform="translate(60,103)"/>
<path d="M0 0 C1.98 0 3.96 0 6 0 C6 0.66 6 1.32 6 2 C6.66 2.33 7.32 2.66 8 3 C8.4140625 5.72265625 8.4140625 5.72265625 8.625 9.0625 C8.69976562 10.16722656 8.77453125 11.27195312 8.8515625 12.41015625 C8.90054687 13.26480469 8.94953125 14.11945313 9 15 C9.66 15 10.32 15 11 15 C11 11.37 11 7.74 11 4 C11.66 4 12.32 4 13 4 C13 2.68 13 1.36 13 0 C15.31 0 17.62 0 20 0 C20.33 1.32 20.66 2.64 21 4 C20.01 4.495 20.01 4.495 19 5 C18.01 4.67 17.02 4.34 16 4 C16.02320312 4.6084375 16.04640625 5.216875 16.0703125 5.84375 C16.24568648 14.36191464 15.18229949 22.58667237 14 31 C11.69 31.66 9.38 32.32 7 33 C4.64972898 29.45871054 3.49900587 26.59136898 2.83203125 22.40234375 C2.66123047 21.35369141 2.49042969 20.30503906 2.31445312 19.22460938 C2.14880859 18.13986328 1.98316406 17.05511719 1.8125 15.9375 C1.63525391 14.84888672 1.45800781 13.76027344 1.27539062 12.63867188 C0.59254935 8.35443607 0 4.34767465 0 0 Z " fill="#161616" transform="translate(16,76)"/>
<path d="M0 0 C3.06870109 1.99465571 3.78812649 3.36437947 4.9375 6.8125 C5.01959907 10.99955246 4.08202015 13.37325522 2 17 C-1.0448704 19.63888768 -3.10381829 20.8353952 -7.0625 21.5625 C-11.26518641 20.75773026 -12.59408329 19.53811281 -15 16 C-15.9352793 11.03895327 -15.77890814 7.27221663 -13.125 2.9375 C-9.1375426 -0.69812292 -5.20881654 -0.65805334 0 0 Z " fill="#222222" transform="translate(161,122)"/>
<path d="M0 0 C1.98 0 3.96 0 6 0 C5.85966889 1.97956441 5.7125877 3.95865141 5.5625 5.9375 C5.48128906 7.03964844 5.40007813 8.14179687 5.31640625 9.27734375 C5 12 5 12 4 13 C3.70490939 14.40950688 3.46294037 15.83026105 3.24609375 17.25390625 C3.11396484 18.10791016 2.98183594 18.96191406 2.84570312 19.84179688 C2.71099609 20.73962891 2.57628906 21.63746094 2.4375 22.5625 C2.29892578 23.46419922 2.16035156 24.36589844 2.01757812 25.29492188 C1.67471949 27.52941433 1.33569977 29.7644227 1 32 C-1.31 32.66 -3.62 33.32 -6 34 C-10.72446466 21.65150654 -10.72446466 21.65150654 -9 15 C-8.63884595 13.18887934 -8.28503605 11.37628305 -7.9375 9.5625 C-7.62690732 8.041276 -7.31507274 6.52030242 -7 5 C-4.64046906 7.35953094 -4.50858587 8.77895617 -4 12 C-3.67 12 -3.34 12 -3 12 C-2.67 9.03 -2.34 6.06 -2 3 C-1.34 3 -0.68 3 0 3 C0 2.01 0 1.02 0 0 Z " fill="#181818" transform="translate(43,76)"/>
<path d="M0 0 C0 8.25 0 16.5 0 25 C0.66 25 1.32 25 2 25 C2 25.99 2 26.98 2 28 C-1.96 28 -5.92 28 -10 28 C-12.15908873 21.99245922 -12.08010645 16.88392856 -11.625 10.5625 C-11.56828125 9.64017578 -11.5115625 8.71785156 -11.453125 7.76757812 C-11.31280733 5.51080221 -11.16152895 3.25534003 -11 1 C-9.02 1 -7.04 1 -5 1 C-4.67 1.66 -4.34 2.32 -4 3 C-3.525625 2.505 -3.05125 2.01 -2.5625 1.5 C-1 0 -1 0 0 0 Z " fill="#040404" transform="translate(126,83)"/>
<path d="M0 0 C1.32 0 2.64 0 4 0 C4.33 3.63 4.66 7.26 5 11 C6.65 7.37 8.3 3.74 10 0 C11.98 0 13.96 0 16 0 C16.33 3.63 16.66 7.26 17 11 C18.65 7.37 20.3 3.74 22 0 C23.32 0 24.64 0 26 0 C25.40440894 4.86872054 23.27522585 8.59328841 20.9375 12.8125 C20.56044922 13.50537109 20.18339844 14.19824219 19.79492188 14.91210938 C18.86916148 16.61128985 17.93537688 18.30609425 17 20 C15.35 20 13.7 20 12 20 C11.67 16.37 11.34 12.74 11 9 C9.02 12.63 7.04 16.26 5 20 C3.35 20 1.7 20 0 20 C0 13.4 0 6.8 0 0 Z " fill="#434343" transform="translate(15,122)"/>
<path d="M0 0 C1.78375992 3.56751985 2.41301375 5.66521636 2.96484375 9.5 C3.12533203 10.551875 3.28582031 11.60375 3.45117188 12.6875 C3.77530869 14.89527525 4.09562407 17.10361493 4.41210938 19.3125 C4.57388672 20.364375 4.73566406 21.41625 4.90234375 22.5 C5.04148193 23.4590625 5.18062012 24.418125 5.32397461 25.40625 C6.05679476 28.21790812 7.11457813 29.81840321 9 32 C10.65 31.67 12.3 31.34 14 31 C14.66 25.72 15.32 20.44 16 15 C16.33 15 16.66 15 17 15 C17 23.58 17 32.16 17 41 C11.39 41 5.78 41 0 41 C0 27.47 0 13.94 0 0 Z " fill="#010101" transform="translate(15,76)"/>
<path d="M0 0 C1.98 0 3.96 0 6 0 C6.33 4.29 6.66 8.58 7 13 C7.804375 11.040625 8.60875 9.08125 9.4375 7.0625 C11.875 1.125 11.875 1.125 13 0 C14.98 0 16.96 0 19 0 C18.01 6.93 17.02 13.86 16 21 C14.68 21 13.36 21 12 21 C12.0721875 20.38511719 12.144375 19.77023438 12.21875 19.13671875 C12.35796875 17.92435547 12.35796875 17.92435547 12.5 16.6875 C12.63921875 15.48673828 12.63921875 15.48673828 12.78125 14.26171875 C13.04813463 11.88103445 13.04813463 11.88103445 13 9 C11.35 12.96 9.7 16.92 8 21 C6.35 21 4.7 21 3 21 C2.67 17.37 2.34 13.74 2 10 C1.34 13.3 0.68 16.6 0 20 C-1.32 20 -2.64 20 -4 20 C-3.42978625 13.04339229 -1.98697306 6.68572695 0 0 Z " fill="#292929" transform="translate(171,122)"/>
<path d="M0 0 C1.18613892 0.00785522 1.18613892 0.00785522 2.39624023 0.01586914 C3.67724609 0.02070312 3.67724609 0.02070312 4.98413086 0.02563477 C5.88196289 0.03401367 6.77979492 0.04239258 7.70483398 0.05102539 C8.6065332 0.05553711 9.50823242 0.06004883 10.43725586 0.06469727 C12.67234712 0.07652315 14.90730835 0.09300319 17.14233398 0.11352539 C18.14233398 3.11352539 18.14233398 3.11352539 18.14233398 10.11352539 C11.54233398 10.11352539 4.94233398 10.11352539 -1.85766602 10.11352539 C-1.85766602 12.09352539 -1.85766602 14.07352539 -1.85766602 16.11352539 C-2.18766602 16.11352539 -2.51766602 16.11352539 -2.85766602 16.11352539 C-2.88451697 13.63428738 -2.90443149 11.15533699 -2.92016602 8.67602539 C-2.93273437 7.61544922 -2.93273437 7.61544922 -2.94555664 6.53344727 C-2.95420189 4.7265898 -2.90986613 2.91964936 -2.85766602 1.11352539 C-1.85766602 0.11352539 -1.85766602 0.11352539 0 0 Z " fill="#131313" transform="translate(101.857666015625,65.886474609375)"/>
<path d="M0 0 C4.95 0 9.9 0 15 0 C15 0.99 15 1.98 15 3 C11.04 3 7.08 3 3 3 C3 4.65 3 6.3 3 8 C6.3 8 9.6 8 13 8 C13 8.99 13 9.98 13 11 C9.37 11 5.74 11 2 11 C1.67 12.98 1.34 14.96 1 17 C4.63 17 8.26 17 12 17 C12 18.32 12 19.64 12 21 C6.72 21 1.44 21 -4 21 C-3.46553805 13.62442514 -2.09233694 7.09575135 0 0 Z " fill="#505050" transform="translate(100,122)"/>
<path d="M0 0 C0.7734375 -0.01675781 1.546875 -0.03351563 2.34375 -0.05078125 C5.02194538 0.40043645 5.91063549 1.13731203 7.5 3.3125 C7.5 4.3025 7.5 5.2925 7.5 6.3125 C6.18 6.3125 4.86 6.3125 3.5 6.3125 C3.17 5.6525 2.84 4.9925 2.5 4.3125 C0.85 4.3125 -0.8 4.3125 -2.5 4.3125 C-1.36871217 7.7063635 -0.99830647 7.87690606 2 9.4375 C5.5 11.3125 5.5 11.3125 6.5 12.3125 C6.875 14.625 6.875 14.625 6.5 17.3125 C3.72360006 20.42543327 2.09473237 21.23946269 -2.0625 21.75 C-5.60690128 21.29889438 -7.13325123 20.96325863 -9.5 18.3125 C-9.5 16.9925 -9.5 15.6725 -9.5 14.3125 C-8.18 14.3125 -6.86 14.3125 -5.5 14.3125 C-5.5 15.3025 -5.5 16.2925 -5.5 17.3125 C-2.035 16.8175 -2.035 16.8175 1.5 16.3125 C0.78995535 13.03393001 0.78995535 13.03393001 -2.4375 11.75 C-3.448125 11.275625 -4.45875 10.80125 -5.5 10.3125 C-7.5 8.3125 -7.5 8.3125 -7.8125 5.3125 C-7.709375 4.3225 -7.60625 3.3325 -7.5 2.3125 C-4.40219052 0.24729368 -3.5459519 0.01772976 0 0 Z " fill="#2B2B2B" transform="translate(69.5,121.6875)"/>
<path d="M0 0 C0.78246094 -0.02578125 1.56492188 -0.0515625 2.37109375 -0.078125 C4.5625 0.25 4.5625 0.25 6.34765625 1.578125 C7.5625 3.25 7.5625 3.25 7.5625 6.25 C6.2425 6.25 4.9225 6.25 3.5625 6.25 C3.5625 5.59 3.5625 4.93 3.5625 4.25 C-0.71908753 3.7896536 -0.71908753 3.7896536 -4.3125 5.8125 C-5.82085163 9.0805952 -5.70578688 11.69519888 -5.4375 15.25 C-4.38320314 16.51472065 -4.38320314 16.51472065 -2 16.5 C-1.154375 16.4175 -0.30875 16.335 0.5625 16.25 C1.2225 15.26 1.8825 14.27 2.5625 13.25 C3.8825 13.25 5.2025 13.25 6.5625 13.25 C6.24401851 16.22249386 5.52624181 17.28839103 3.4375 19.5 C-0.21474916 21.72310819 -2.23114789 21.93831216 -6.4375 21.25 C-9.1232562 19.11516815 -10.21086817 17.52100736 -10.81640625 14.125 C-11.10020563 8.70534727 -10.03604945 5.48358759 -6.4375 1.25 C-4.11063547 0.08656773 -2.59028587 0.05104012 0 0 Z " fill="#272727" transform="translate(135.4375,121.75)"/>
<path d="M0 0 C2.625 -0.1875 2.625 -0.1875 5 0 C5.50780894 2.20655075 6.00591365 4.41533605 6.5 6.625 C6.7784375 7.85476562 7.056875 9.08453125 7.34375 10.3515625 C7.94091621 13.67152228 8.12409534 16.63908451 8 20 C6.68 20 5.36 20 4 20 C4 18.68 4 17.36 4 16 C2.54054712 16.08708669 1.08234132 16.19526907 -0.375 16.3125 C-1.18710937 16.37050781 -1.99921875 16.42851562 -2.8359375 16.48828125 C-5.37921338 16.82990528 -5.37921338 16.82990528 -7 20 C-7.99 20 -8.98 20 -10 20 C-9.52354792 15.71193127 -8.34097516 13.73352513 -5 11 C-4.34 11 -3.68 11 -3 11 C-3 11.66 -3 12.32 -3 13 C-1.02 13 0.96 13 3 13 C2.34 10.69 1.68 8.38 1 6 C0.34 6.66 -0.32 7.32 -1 8 C-1.66 8 -2.32 8 -3 8 C-2.45276317 4.62537285 -1.9451 2.91765 0 0 Z " fill="#262626" transform="translate(48,122)"/>
<path d="M0 0 C2.97 0.495 2.97 0.495 6 1 C6 1.66 6 2.32 6 3 C7.32 3 8.64 3 10 3 C9.67 4.98 9.34 6.96 9 9 C8.071875 9.12375 8.071875 9.12375 7.125 9.25 C4.81562433 9.81258459 4.81562433 9.81258459 3.75 12.0625 C3.5025 12.701875 3.255 13.34125 3 14 C0.625 14.125 0.625 14.125 -2 14 C-4 12 -4 12 -4.375 8.6875 C-3.94805086 4.48916683 -2.88994071 2.98025136 0 0 Z " fill="#F3F3F3" transform="translate(133,125)"/>
<path d="M0 0 C2.375 0.4375 2.375 0.4375 4.375 2.4375 C4.83898201 6.53600772 4.75930032 8.76853277 2.6875 12.375 C0.375 14.4375 0.375 14.4375 -2.25 14.875 C-4.625 14.4375 -4.625 14.4375 -6.625 12.4375 C-7.08898201 8.33899228 -7.00930032 6.10646723 -4.9375 2.5 C-2.625 0.4375 -2.625 0.4375 0 0 Z " fill="#F6F6F6" transform="translate(156.625,124.5625)"/>
<path d="M0 0 C5.28 0 10.56 0 16 0 C16 0.99 16 1.98 16 3 C13.69 3 11.38 3 9 3 C8.95101562 3.71285156 8.90203125 4.42570312 8.8515625 5.16015625 C8.41871477 10.70508491 7.75971184 15.72086449 6 21 C4.68 21 3.36 21 2 21 C2.80499864 14.96251023 3.88482498 8.98729887 5 3 C3.35 3 1.7 3 0 3 C0 2.01 0 1.02 0 0 Z " fill="#252525" transform="translate(81,122)"/>
<path d="M0 0 C1.32 0 2.64 0 4 0 C4 0.99 4 1.98 4 3 C5.32 3.33 6.64 3.66 8 4 C8.33 5.32 8.66 6.64 9 8 C9.99 7.34 10.98 6.68 12 6 C12.33 8.64 12.66 11.28 13 14 C11.02 14 9.04 14 7 14 C7 13.34 7 12.68 7 12 C3.63279613 13.39332574 2.0140476 14.9789286 0 18 C-0.99 16.68 -1.98 15.36 -3 14 C-1.02 9.71 0.96 5.42 3 1 C2.01 0.67 1.02 0.34 0 0 Z " fill="#EDEDED" transform="translate(38,121)"/>
<path d="M0 0 C1.32 0 2.64 0 4 0 C4.33 3.63 4.66 7.26 5 11 C5.33 10.34 5.66 9.68 6 9 C6.99 9.33 7.98 9.66 9 10 C8.52219697 11.29217171 8.04270894 12.58372046 7.5625 13.875 C7.16224609 14.95394531 7.16224609 14.95394531 6.75390625 16.0546875 C6 18 6 18 5 20 C3.35 20 1.7 20 0 20 C0 13.4 0 6.8 0 0 Z " fill="#353535" transform="translate(15,122)"/>
<path d="M0 0 C4.62 0 9.24 0 14 0 C14 3.3 14 6.6 14 10 C8.72 10 3.44 10 -2 10 C-2 9.67 -2 9.34 -2 9 C3.94 8.505 3.94 8.505 10 8 C7.36 7.01 4.72 6.02 2 5 C2 4.01 2 3.02 2 2 C1.34 2 0.68 2 0 2 C0 1.34 0 0.68 0 0 Z " fill="#222222" transform="translate(78,88)"/>
<path d="M0 0 C0.66 0 1.32 0 2 0 C2 0.66 2 1.32 2 2 C3.32 2 4.64 2 6 2 C5.6173991 7.64336328 5.22146091 10.89915226 1 15 C-2.25155406 17.27608784 -5.09049241 17.33995718 -9 17 C-9.66 16.34 -10.32 15.68 -11 15 C-10.67 14.67 -10.34 14.34 -10 14 C-10.33 14 -10.66 14 -11 14 C-11 11.36 -11 8.72 -11 6 C-10.67 6 -10.34 6 -10 6 C-9.34 7.98 -8.68 9.96 -8 12 C-5.62625139 12.33425735 -5.62625139 12.33425735 -3 12 C-1.00036981 10.56008963 -1.00036981 10.56008963 0 8 C0.23884872 5.27920155 0.13709297 2.74185932 0 0 Z " fill="#3A3A3A" transform="translate(160,126)"/>
<path d="M0 0 C1.98 0 3.96 0 6 0 C6 2.64 6 5.28 6 8 C5.01 8.495 5.01 8.495 4 9 C3.34 7.02 2.68 5.04 2 3 C2.061875 4.423125 2.061875 4.423125 2.125 5.875 C2.14484508 10.70727658 1.05774196 15.30627004 0 20 C-1.32 20 -2.64 20 -4 20 C-3.42978625 13.04339229 -1.98697306 6.68572695 0 0 Z " fill="#2A2A2A" transform="translate(171,122)"/>
<path d="M0 0 C1.32 0.33 2.64 0.66 4 1 C4.25409836 7.35245902 4.25409836 7.35245902 3.03125 10.46875 C1.49793532 15.71919119 1.52890142 20.93073741 1.375 26.375 C1.33632813 27.49261719 1.29765625 28.61023438 1.2578125 29.76171875 C1.16393784 32.50755263 1.08089719 35.25375315 1 38 C-5.27 38 -11.54 38 -18 38 C-18 37.67 -18 37.34 -18 37 C-12.06 37 -6.12 37 0 37 C0 24.79 0 12.58 0 0 Z " fill="#AAAAAA" transform="translate(32,80)"/>
<path d="M0 0 C4.95 0.33 9.9 0.66 15 1 C15 2.32 15 3.64 15 5 C10.6835078 5.76173392 7.25566547 6.16063604 3 5 C3 4.34 3 3.68 3 3 C2.34 3 1.68 3 1 3 C0.67 2.01 0.34 1.02 0 0 Z " fill="#232323" transform="translate(77,103)"/>
<path d="M0 0 C4.95 0 9.9 0 15 0 C15 0.99 15 1.98 15 3 C11.04 3 7.08 3 3 3 C3 4.32 3 5.64 3 7 C1.68 7.33 0.36 7.66 -1 8 C-0.67 5.36 -0.34 2.72 0 0 Z " fill="#212121" transform="translate(100,122)"/>
<path d="M0 0 C3.33333333 1.66666667 6.66666667 3.33333333 10 5 C10 6.32 10 7.64 10 9 C7.69 9 5.38 9 3 9 C3 8.01 3 7.02 3 6 C1.68 6 0.36 6 -1 6 C-1.33 6.66 -1.66 7.32 -2 8 C-2 6.68 -2 5.36 -2 4 C-1.34 3.67 -0.68 3.34 0 3 C0 2.01 0 1.02 0 0 Z " fill="#E9E9E9" transform="translate(61,130)"/>
<path d="M0 0 C0 0.33 0 0.66 0 1 C-4.95 1 -9.9 1 -15 1 C-15.33 3.64 -15.66 6.28 -16 9 C-16.33 7.68 -16.66 6.36 -17 5 C-19.31 5 -21.62 5 -24 5 C-24.33 5.66 -24.66 6.32 -25 7 C-25 6.01 -25 5.02 -25 4 C-22.69 4 -20.38 4 -18 4 C-18 3.01 -18 2.02 -18 1 C-23.28 1 -28.56 1 -34 1 C-34 0.67 -34 0.34 -34 0 C-22.54654751 -1.01427032 -11.46204409 -0.86230656 0 0 Z " fill="#D2D2D2" transform="translate(115,121)"/>
<path d="M0 0 C0.33 0 0.66 0 1 0 C1.07347656 1.37285156 1.07347656 1.37285156 1.1484375 2.7734375 C1.22320313 3.96195312 1.29796875 5.15046875 1.375 6.375 C1.44460937 7.55835938 1.51421875 8.74171875 1.5859375 9.9609375 C1.70217346 13.10562319 1.70217346 13.10562319 4 15 C3.625 17.125 3.625 17.125 3 19 C1.68 19 0.36 19 -1 19 C-1.33 13.39 -1.66 7.78 -2 2 C-1.34 2 -0.68 2 0 2 C0 1.34 0 0.68 0 0 Z " fill="#1F1F1F" transform="translate(29,123)"/>
<path d="M0 0 C1.32 0 2.64 0 4 0 C3.39254603 4.85963179 1.27241033 8.7405518 -1 13 C-1.99 12.67 -2.98 12.34 -4 12 C-3.45660208 7.43545749 -2.20536179 4.0271824 0 0 Z " fill="#323232" transform="translate(37,122)"/>
<path d="M0 0 C0.33 0 0.66 0 1 0 C1.66 1.98 2.32 3.96 3 6 C6.62885324 6.15149298 6.62885324 6.15149298 10 5 C10 5.66 10 6.32 10 7 C10.99 7.33 11.98 7.66 13 8 C9.19819614 10.68362626 6.65620796 11.51735644 2 11 C1.34 10.34 0.68 9.68 0 9 C0.33 8.67 0.66 8.34 1 8 C0.67 8 0.34 8 0 8 C0 5.36 0 2.72 0 0 Z " fill="#383838" transform="translate(149,132)"/>
<path d="M0 0 C0.99 0.33 1.98 0.66 3 1 C3 2.32 3 3.64 3 5 C3.33 5 3.66 5 4 5 C5 11.625 5 11.625 5 15 C5.33 15.99 5.66 16.98 6 18 C4.35 18 2.7 18 1 18 C0.67 12.06 0.34 6.12 0 0 Z " fill="#404040" transform="translate(173,125)"/>
<path d="M0 0 C1.90389849 2.85584773 2.69462177 4.9311762 3.625 8.1875 C3.88539062 9.08855469 4.14578125 9.98960938 4.4140625 10.91796875 C4.60742188 11.60503906 4.80078125 12.29210937 5 13 C2.69 13 0.38 13 -2 13 C-1.85769192 11.58297487 -1.71099254 10.1663904 -1.5625 8.75 C-1.48128906 7.96109375 -1.40007813 7.1721875 -1.31640625 6.359375 C-1.02365007 4.17635361 -0.57935581 2.1226818 0 0 Z " fill="#171717" transform="translate(52,96)"/>
<path d="M0 0 C0.99 2.31 1.98 4.62 3 7 C-0.63 7 -4.26 7 -8 7 C-7.67 6.34 -7.34 5.68 -7 5 C-6.690625 4.319375 -6.38125 3.63875 -6.0625 2.9375 C-4.43014799 -0.03914189 -3.36761081 0 0 0 Z " fill="#F5F5F5" transform="translate(174,88)"/>
<path d="M0 0 C1.76462683 3.08809695 2 4.23312136 2 8 C0.02 8 -1.96 8 -4 8 C-4 7.34 -4 6.68 -4 6 C-5.32 6.33 -6.64 6.66 -8 7 C-7.01 5.02 -6.02 3.04 -5 1 C-4.01 1.33 -3.02 1.66 -2 2 C-1.34 1.34 -0.68 0.68 0 0 Z " fill="#434343" transform="translate(49,127)"/>
<path d="M0 0 C0.99 0 1.98 0 3 0 C3.33 5.28 3.66 10.56 4 16 C3.01 16.33 2.02 16.66 1 17 C0.09586327 13.16275828 -0.10576898 9.62497726 -0.0625 5.6875 C-0.05347656 4.61886719 -0.04445313 3.55023438 -0.03515625 2.44921875 C-0.02355469 1.64097656 -0.01195312 0.83273438 0 0 Z " fill="#1F1F1F" transform="translate(15,122)"/>
<path d="M0 0 C1.21236328 0.01353516 1.21236328 0.01353516 2.44921875 0.02734375 C3.37154297 0.04474609 3.37154297 0.04474609 4.3125 0.0625 C4.3125 1.3825 4.3125 2.7025 4.3125 4.0625 C0.3525 4.0625 -3.6075 4.0625 -7.6875 4.0625 C-7.6875 3.0725 -7.6875 2.0825 -7.6875 1.0625 C-4.80538698 0.10179566 -2.98899956 -0.04331883 0 0 Z " fill="#202020" transform="translate(87.6875,75.9375)"/>
<path d="M0 0 C1.32 0 2.64 0 4 0 C3.68151851 2.97249386 2.96374181 4.03839103 0.875 6.25 C-2.6525032 8.39717586 -4.9410184 8.3183515 -9 8 C-9 7.67 -9 7.34 -9 7 C-7.35 6.67 -5.7 6.34 -4 6 C-4.66 5.34 -5.32 4.68 -6 4 C-5.195625 3.71125 -4.39125 3.4225 -3.5625 3.125 C-0.8673532 2.26737432 -0.8673532 2.26737432 0 0 Z " fill="#3C3C3C" transform="translate(138,135)"/>
<path d="M0 0 C0.33 1.32 0.66 2.64 1 4 C5.95 3.67 10.9 3.34 16 3 C16.33 3.66 16.66 4.32 17 5 C11.06 5 5.12 5 -1 5 C-1 5.66 -1 6.32 -1 7 C-3.5 8.625 -3.5 8.625 -6 10 C-4.6302836 6.00499382 -2.74277578 3.19990508 0 0 Z " fill="#2D2D2D" transform="translate(164,91)"/>
<path d="M0 0 C1.32 0 2.64 0 4 0 C4 0.99 4 1.98 4 3 C5.65 3 7.3 3 9 3 C8.34 3.66 7.68 4.32 7 5 C8.32 5.66 9.64 6.32 11 7 C4.70786517 7.36300778 4.70786517 7.36300778 1.5625 5.75 C0 4 0 4 0 0 Z " fill="#393939" transform="translate(60,136)"/>
<path d="M0 0 C2.37327851 3.55991776 2.78356356 5.74341661 3 10 C1.5625 13.4375 1.5625 13.4375 0 16 C-0.33 16 -0.66 16 -1 16 C-1.02692484 13.70839681 -1.04636124 11.41670454 -1.0625 9.125 C-1.07410156 7.84882812 -1.08570313 6.57265625 -1.09765625 5.2578125 C-1 2 -1 2 0 0 Z " fill="#D3D3D3" transform="translate(178,120)"/>
<path d="M0 0 C0.99 0 1.98 0 3 0 C2.98839844 0.69867188 2.97679687 1.39734375 2.96484375 2.1171875 C2.95582031 3.02726563 2.94679687 3.93734375 2.9375 4.875 C2.92589844 5.77992188 2.91429687 6.68484375 2.90234375 7.6171875 C2.83750743 10.0168585 2.83750743 10.0168585 4 12 C2.0625 11.625 2.0625 11.625 0 11 C-1.62651522 7.74696956 -1.11453156 4.60774398 -1 1 C-0.67 0.67 -0.34 0.34 0 0 Z " fill="#1D1D1D" transform="translate(147,129)"/>
<path d="M0 0 C2.625 -0.1875 2.625 -0.1875 5 0 C4.65978036 3.17538332 3.97533396 4.02276865 1.5625 6.25 C-1 8 -1 8 -3 8 C-2.45276317 4.62537285 -1.9451 2.91765 0 0 Z " fill="#1E1E1E" transform="translate(48,122)"/>
<path d="M0 0 C1.98 0 3.96 0 6 0 C6 2.64 6 5.28 6 8 C5.01 8.495 5.01 8.495 4 9 C3.34 7.02 2.68 5.04 2 3 C1.67 4.32 1.34 5.64 1 7 C0 4 0 4 0 0 Z " fill="#1D1D1D" transform="translate(171,122)"/>
<path d="M0 0 C1.8871875 0.0309375 1.8871875 0.0309375 3.8125 0.0625 C3.8125 1.0525 3.8125 2.0425 3.8125 3.0625 C-1.1375 3.0625 -6.0875 3.0625 -11.1875 3.0625 C-7.144351 1.0409255 -4.44251089 -0.07282805 0 0 Z " fill="#1E1E1E" transform="translate(108.1875,138.9375)"/>
<path d="M0 0 C0.99 0.33 1.98 0.66 3 1 C3.33 4.3 3.66 7.6 4 11 C2.68 10.67 1.36 10.34 0 10 C-1.125 3.375 -1.125 3.375 0 0 Z " fill="#333333" transform="translate(51,124)"/>
<path d="M0 0 C6.460199 -0.36567164 6.460199 -0.36567164 8.9375 1.3125 C10 3 10 3 10 6 C8.68 6 7.36 6 6 6 C5.34 5.01 4.68 4.02 4 3 C1.94074861 2.27617533 1.94074861 2.27617533 0 2 C0 1.34 0 0.68 0 0 Z " fill="#282828" transform="translate(67,122)"/>
<path d="M0 0 C3.63 0 7.26 0 11 0 C11 0.99 11 1.98 11 3 C7.7 3 4.4 3 1 3 C0.67 2.01 0.34 1.02 0 0 Z " fill="#1F1F1F" transform="translate(102,130)"/>
<path d="M0 0 C7.59 0 15.18 0 23 0 C23 0.33 23 0.66 23 1 C17.06 1.33 11.12 1.66 5 2 C5.33 2.66 5.66 3.32 6 4 C4.02 3.34 2.04 2.68 0 2 C0 1.34 0 0.68 0 0 Z " fill="#999999" transform="translate(145,46)"/>
<path d="M0 0 C0.66 0.66 1.32 1.32 2 2 C1.6442194 5.37991574 0.64284201 8.04288438 -1 11 C-2.32 10.67 -3.64 10.34 -5 10 C-4.54625 9.278125 -4.0925 8.55625 -3.625 7.8125 C-2.14505642 5.25105919 -1.02782461 2.76722011 0 0 Z " fill="#272727" transform="translate(180,131)"/>
<path d="M0 0 C3.3 0 6.6 0 10 0 C10 0.99 10 1.98 10 3 C8.72125 2.95875 7.4425 2.9175 6.125 2.875 C3.98128508 2.75787127 3.98128508 2.75787127 2 3 C1.34 3.66 0.68 4.32 0 5 C0 3.35 0 1.7 0 0 Z " fill="#1F1F1F" transform="translate(87,122)"/>
<path d="M0 0 C0.99 0.33 1.98 0.66 3 1 C3.17835515 5.54805635 2.99785435 8.8794254 1 13 C0.67 13 0.34 13 0 13 C0 8.71 0 4.42 0 0 Z " fill="#E7E7E7" transform="translate(33,80)"/>
<path d="M0 0 C0.66 0.33 1.32 0.66 2 1 C1.44295272 4.23087421 0.66812465 6.02361137 -2 8 C-3.32 8 -4.64 8 -6 8 C-4.73058503 4.08597051 -3.48832306 2.20927127 0 0 Z " fill="#3A3A3A" transform="translate(152,122)"/>
<path d="M0 0 C0.33 0.66 0.66 1.32 1 2 C1.66 2 2.32 2 3 2 C2.67 5.63 2.34 9.26 2 13 C1.34 13 0.68 13 0 13 C0 8.71 0 4.42 0 0 Z " fill="#D0D0D0" transform="translate(92,104)"/>
<path d="M0 0 C0.99 0 1.98 0 3 0 C3.33 1.98 3.66 3.96 4 6 C2.35 6.33 0.7 6.66 -1 7 C-0.67 4.69 -0.34 2.38 0 0 Z " fill="#424242" transform="translate(84,136)"/>
<path d="M0 0 C2.46800047 1.15173355 4.04783565 2.04783565 6 4 C5.67 4.66 5.34 5.32 5 6 C3.02 6 1.04 6 -1 6 C-1.33 6.66 -1.66 7.32 -2 8 C-2 6.68 -2 5.36 -2 4 C-1.34 3.67 -0.68 3.34 0 3 C0 2.01 0 1.02 0 0 Z " fill="#E3E3E3" transform="translate(61,130)"/>
<path d="M0 0 C0 0.66 0 1.32 0 2 C1.32 2.33 2.64 2.66 4 3 C2.68 3.33 1.36 3.66 0 4 C-0.33 5.32 -0.66 6.64 -1 8 C-1.66 7.67 -2.32 7.34 -3 7 C-3 6.01 -3 5.02 -3 4 C-3.66 5.32 -4.32 6.64 -5 8 C-5.1875 5.125 -5.1875 5.125 -5 2 C-2 0 -2 0 0 0 Z " fill="#393939" transform="translate(67,122)"/>
<path d="M0 0 C-1.1858237 3.37503669 -2.27573689 5.64722731 -5 8 C-5.66 7.01 -6.32 6.02 -7 5 C-6.1875 3.0625 -6.1875 3.0625 -5 1 C-2 0 -2 0 0 0 Z " fill="#0F0F0F" transform="translate(186,94)"/>
<path d="M0 0 C0.99 0 1.98 0 3 0 C2.25 4.75 2.25 4.75 0 7 C-0.99 6.67 -1.98 6.34 -3 6 C-1.125 1.125 -1.125 1.125 0 0 Z " fill="#313131" transform="translate(129,123)"/>
<path d="M0 0 C0.99 0.33 1.98 0.66 3 1 C3 2.98 3 4.96 3 7 C1.68 7 0.36 7 -1 7 C-0.67 4.69 -0.34 2.38 0 0 Z " fill="#3F3F3F" transform="translate(184,136)"/>
<path d="M0 0 C1.46132217 2.92264434 2.34099246 4.92463146 3 8 C0.525 9.485 0.525 9.485 -2 11 C-1.34 7.37 -0.68 3.74 0 0 Z " fill="#3C3C3C" transform="translate(170,124)"/>
<path d="M0 0 C0.66 0 1.32 0 2 0 C2.33 2.64 2.66 5.28 3 8 C1.68 8 0.36 8 -1 8 C-0.67 5.36 -0.34 2.72 0 0 Z " fill="#020202" transform="translate(61,88)"/>
<path d="M0 0 C1.02994079 3.08982236 1.02386167 4.01787204 0.3125 7.0625 C0.16425781 7.75472656 0.01601562 8.44695312 -0.13671875 9.16015625 C-1.27149495 11.57861593 -2.56809064 12.04407636 -5 13 C-4.54554036 11.58208592 -4.08625056 10.16571954 -3.625 8.75 C-3.24214844 7.56664062 -3.24214844 7.56664062 -2.8515625 6.359375 C-2.04826333 4.13372042 -1.10288338 2.09068328 0 0 Z " fill="#D3D3D3" transform="translate(185,127)"/>
<path d="M0 0 C2 1 2 1 2.6875 2.9375 C3 5 3 5 2 7 C0.68 7 -0.64 7 -2 7 C-1.125 2.25 -1.125 2.25 0 0 Z " fill="#282828" transform="translate(161,132)"/>
<path d="M0 0 C1.4606285 2.64738916 2 3.89448334 2 7 C0.35 7 -1.3 7 -3 7 C-1.125 1.125 -1.125 1.125 0 0 Z " fill="#E4E4E4" transform="translate(49,127)"/>
<path d="M0 0 C0.33 0.66 0.66 1.32 1 2 C1.66 2 2.32 2 3 2 C2.34 4.31 1.68 6.62 1 9 C0.01 8.01 -0.98 7.02 -2 6 C-1.34 4.02 -0.68 2.04 0 0 Z " fill="#333333" transform="translate(182,125)"/>
<path d="M0 0 C0.33 1.32 0.66 2.64 1 4 C-0.32 4.33 -1.64 4.66 -3 5 C-3.66 3.68 -4.32 2.36 -5 1 C-3 0 -3 0 0 0 Z " fill="#ECECEC" transform="translate(174,88)"/>
<path d="M0 0 C2 3 2 3 1.75 5.5625 C1 8 1 8 -1 10 C-1.125 2.25 -1.125 2.25 0 0 Z " fill="#F1F1F1" transform="translate(32,125)"/>
<path d="M0 0 C0.99 0.33 1.98 0.66 3 1 C2.01 2.98 1.02 4.96 0 7 C-0.99 6.01 -1.98 5.02 -3 4 C-2.01 2.68 -1.02 1.36 0 0 Z " fill="#ECECEC" transform="translate(132,52)"/>
<path d="M0 0 C0.33 0 0.66 0 1 0 C1 1.98 1 3.96 1 6 C-0.32 6 -1.64 6 -3 6 C-3 4.68 -3 3.36 -3 2 C-2.01 2 -1.02 2 0 2 C0 1.34 0 0.68 0 0 Z " fill="#383838" transform="translate(55,136)"/>
<path d="M0 0 C0.8971875 0.309375 0.8971875 0.309375 1.8125 0.625 C-2.02075617 3.33082788 -4.51288149 3.95113618 -9.1875 3.625 C-8.2903125 3.191875 -8.2903125 3.191875 -7.375 2.75 C-1.52083333 -0.26071429 -1.52083333 -0.26071429 0 0 Z " fill="#444444" transform="translate(160.1875,139.375)"/>
<path d="M0 0 C2.45823172 3.68734758 3.01242616 6.69699971 4 11 C2 9.4375 2 9.4375 0 7 C-0.25 3.25 -0.25 3.25 0 0 Z " fill="#3D3D3D" transform="translate(52,96)"/>
<path d="M0 0 C1.32 0 2.64 0 4 0 C4.66 2.64 5.32 5.28 6 8 C5.34 8 4.68 8 4 8 C2.68 5.36 1.36 2.72 0 0 Z " fill="#3F3F3F" transform="translate(149,47)"/>
<path d="M0 0 C0.66 0.33 1.32 0.66 2 1 C1.67 2.98 1.34 4.96 1 7 C0.67 6.01 0.34 5.02 0 4 C-0.99 3.67 -1.98 3.34 -3 3 C-3 2.34 -3 1.68 -3 1 C-2.01 0.67 -1.02 0.34 0 0 Z " fill="#353535" transform="translate(101,129)"/>
<path d="M0 0 C2.97 0.495 2.97 0.495 6 1 C6 2.98 6 4.96 6 7 C4.5 5.625 4.5 5.625 3 4 C3 3.34 3 2.68 3 2 C2.01 2 1.02 2 0 2 C0 1.34 0 0.68 0 0 Z " fill="#D4D4D4" transform="translate(80,124)"/>
<path d="M0 0 C1.32 0 2.64 0 4 0 C3.34 1.65 2.68 3.3 2 5 C1.01 5 0.02 5 -1 5 C-0.67 3.35 -0.34 1.7 0 0 Z " fill="#2E2E2E" transform="translate(46,125)"/>
</svg>
